<svg id="Capa_1" enable-background="new 0 0 512 512" height="512" viewBox="0 0 512 512" width="512" xmlns="http://www.w3.org/2000/svg"><g><g><path d="m476.509 69.375h-441.018c-12.779 0-23.138-10.359-23.138-23.138v-15.599c0-12.779 10.359-23.138 23.138-23.138h441.018c12.779 0 23.138 10.359 23.138 23.138v15.598c0 12.779-10.359 23.139-23.138 23.139z" fill="#8ebac5"/><path d="m499.65 30.64v15.6c0 12.78-10.36 23.13-23.14 23.13h-31.51c12.78 0 23.14-10.35 23.14-23.13v-15.6c0-12.78-10.36-23.14-23.14-23.14h31.51c12.78 0 23.14 10.36 23.14 23.14z" fill="#7ca1b1"/><path d="m468.138 69.375h-424.276v327.116c0 12.604 10.218 22.822 22.822 22.822h378.632c12.604 0 22.822-10.218 22.822-22.822z" fill="#eaf6ff"/><path d="m468.14 69.37v327.12c0 12.61-10.22 22.82-22.82 22.82h-25.11c12.61 0 22.83-10.21 22.83-22.82v-327.12z" fill="#c8effe"/><path d="m43.862 69.375h424.276v53.659h-424.276z" fill="#99e6fc"/><path d="m443.04 69.37h25.1v53.66h-25.1z" fill="#62dbfb"/><path d="m445.316 419.313h-378.632c-12.604 0-22.822-10.218-22.822-22.822v-30.837h424.276v30.837c0 12.604-10.218 22.822-22.822 22.822z" fill="#99e6fc"/><path d="m468.14 365.65v30.84c0 12.61-10.22 22.82-22.82 22.82h-25.11c12.61 0 22.83-10.21 22.83-22.82v-30.84z" fill="#62dbfb"/><circle cx="256" cy="487.544" fill="#99e6fc" r="16.956"/><path d="m325.87 69.375h-139.739v-22.048c0-4.909 3.98-8.889 8.889-8.889h121.961c4.909 0 8.889 3.98 8.889 8.889z" fill="#eaf6ff"/><path d="m325.87 47.33v22.04h-30.03v-22.04c0-4.91-3.98-8.89-8.89-8.89h30.03c4.91 0 8.89 3.98 8.89 8.89z" fill="#c8effe"/><path d="m138.977 172.771v42.877c0 5.729-4.644 10.374-10.374 10.374h-42.885c-5.004 0-8.837-4.46-8.084-9.406 4.067-26.735 25.201-47.863 51.937-51.928 4.947-.753 9.406 3.08 9.406 8.083z" fill="#fb5f7a"/><path d="m138.98 172.77v42.88c0 5.73-4.65 10.37-10.38 10.37h-26.46c5.73 0 10.37-4.64 10.37-10.37v-42.88c0-.94-.16-1.84-.44-2.67 5.44-2.62 11.32-4.47 17.5-5.41 4.95-.76 9.41 3.08 9.41 8.08z" fill="#f74455"/><path d="m220.476 222.674-53.621 31.225v-53.251c0-5.004 4.461-8.837 9.408-8.084 18.881 2.873 34.962 14.254 44.213 30.11z" fill="#6ed5a1"/><path d="m220.48 222.67-22.46 13.08c-1.41-4.61-3.34-8.99-5.72-13.08-5.94-10.18-14.7-18.52-25.22-23.94.96-4.02 4.89-6.82 9.18-6.17 18.88 2.88 34.96 14.26 44.22 30.11z" fill="#46cc8d"/><path d="m228.834 256.763c-1.433 31.841-27.266 57.679-59.107 59.115-32.365 1.459-59.58-21.888-64.225-52.636-.744-4.922 3.114-9.343 8.092-9.343h53.261l53.621-31.225c5.801 9.932 8.918 21.634 8.358 34.089z" fill="#ffe177"/><path d="m228.83 256.76c-1.43 31.84-27.26 57.68-59.1 59.12-5.87.26-11.56-.29-16.99-1.55 26.51-6.19 46.65-29.56 47.92-57.57.33-7.33-.62-14.41-2.64-21.01l22.46-13.08c5.8 9.94 8.91 21.64 8.35 34.09z" fill="#ffd15b"/><path d="m301.987 302.378h-30v-45.576c0-4.559 3.696-8.255 8.255-8.255h13.49c4.559 0 8.255 3.696 8.255 8.255z" fill="#6ed5a1"/><path d="m361.054 302.378h-30v-74.419c0-4.559 3.696-8.255 8.255-8.255h13.49c4.559 0 8.255 3.696 8.255 8.255z" fill="#fb5f7a"/><path d="m420.121 302.378h-30v-107.813c0-4.559 3.696-8.255 8.255-8.255h13.49c4.559 0 8.255 3.696 8.255 8.255z" fill="#ffe177"/></g><g><path d="m476.509 0h-441.018c-16.894 0-30.638 13.744-30.638 30.638v15.599c-.09 16.737 14.319 31.086 31.51 30.639v319.616c0 16.719 13.603 30.321 30.321 30.321h181.816v37.457c-9.827 3.174-16.956 12.406-16.956 23.275 0 13.484 10.971 24.455 24.456 24.455s24.456-10.971 24.456-24.456c0-10.869-7.129-20.101-16.956-23.275v-37.457h181.816c16.719 0 30.321-13.603 30.321-30.321v-44.578c0-4.143-3.357-7.5-7.5-7.5s-7.5 3.357-7.5 7.5v6.241h-409.275v-227.621h267.855c4.143 0 7.5-3.357 7.5-7.5s-3.357-7.5-7.5-7.5h-267.855v-38.658h409.275v38.658h-105.098c-4.143 0-7.5 3.357-7.5 7.5s3.357 7.5 7.5 7.5h105.099v184.683c0 4.143 3.357 7.5 7.5 7.5s7.5-3.357 7.5-7.5v-238.341c16.645.587 31.552-13.501 31.51-30.639v-15.598c0-16.894-13.745-30.638-30.639-30.638zm-220.509 497c-5.214 0-9.456-4.242-9.456-9.456s4.242-9.456 9.456-9.456 9.456 4.242 9.456 9.456-4.242 9.456-9.456 9.456zm204.638-123.846v23.337c0 8.448-6.873 15.321-15.321 15.321h-378.633c-8.448 0-15.321-6.873-15.321-15.321v-23.337zm-267.008-311.279v-14.549c0-.766.623-1.389 1.39-1.389h121.961c.767 0 1.39.623 1.39 1.389v14.549zm298.518-15.639c0 8.623-7.016 15.639-15.639 15.639h-143.139v-14.549c0-9.037-7.353-16.389-16.39-16.389h-121.96c-9.037 0-16.39 7.352-16.39 16.389v14.549h-143.139c-8.623 0-15.639-7.016-15.639-15.639v-15.598c.001-8.623 7.016-15.638 15.639-15.638h441.018c8.623 0 15.639 7.015 15.639 15.638z"/><path d="m146.478 215.648v-42.877c0-4.573-1.99-8.906-5.46-11.889s-8.056-4.297-12.574-3.611c-14.711 2.237-28.074 9.007-38.645 19.574-10.571 10.569-17.342 23.932-19.58 38.641-.688 4.521.628 9.104 3.609 12.575 2.982 3.47 7.315 5.46 11.89 5.46h42.886c9.855 0 17.874-8.017 17.874-17.873zm-61.273 2.637c-.203-.236-.168-.466-.156-.542 3.548-23.325 22.32-42.094 45.649-45.642.024-.004.063-.01.114-.01.108 0 .267.027.428.167.237.203.237.437.237.513v42.877c0 1.584-1.289 2.873-2.874 2.873h-42.885c-.076 0-.31 0-.513-.236z"/><path d="m169.389 308.386c-8.43.372-16.578-1.107-24.218-4.42-3.8-1.65-8.216.097-9.864 3.897s.097 8.217 3.897 9.864c9.28 3.864 19.585 6.176 30.86 5.643 35.556-1.603 64.661-30.712 66.262-66.271 2.236-33.806-24.445-67.509-58.935-71.949-4.524-.683-9.105.627-12.577 3.61-3.47 2.981-5.46 7.315-5.46 11.889v45.75h-45.761c-4.577 0-8.916 1.991-11.902 5.464-2.971 3.452-4.284 8.009-3.605 12.499 1.444 9.56 4.807 18.555 9.993 26.734 2.22 3.498 6.853 4.535 10.351 2.317 3.498-2.219 4.535-6.853 2.317-10.351-4.064-6.409-6.698-13.455-7.829-20.942-.011-.071-.04-.262.146-.477.14-.163.318-.245.53-.245h53.261c.909-.091 2.145-.06 3.774-1.019l46.698-27.194c2.997 7.3 4.375 15.21 4.015 23.239-1.256 27.881-24.076 50.705-51.953 51.962zm4.966-107.737c0-.076 0-.31.236-.513.161-.139.32-.166.429-.166.051 0 .091.006.115.01 13.839 2.104 26.123 9.354 34.641 20.245l-35.421 20.627z"/><path d="m293.733 241.047h-13.49c-8.688 0-15.755 7.067-15.755 15.755v38.076h-8.014c-4.143 0-7.5 3.357-7.5 7.5s3.357 7.5 7.5 7.5h179.161c4.143 0 7.5-3.357 7.5-7.5s-3.357-7.5-7.5-7.5h-8.014v-100.314c0-8.688-7.068-15.755-15.756-15.755h-13.489c-8.688 0-15.755 7.067-15.755 15.755v100.313h-14.067v-66.919c0-8.688-7.067-15.756-15.755-15.756h-13.489c-8.688 0-15.756 7.068-15.756 15.756v66.919h-14.066v-38.076c-.001-8.687-7.068-15.754-15.755-15.754zm-14.246 53.831v-38.076c0-.416.339-.755.755-.755h13.49c.416 0 .755.339.755.755v38.076zm118.134-100.314c0-.416.339-.755.755-.755h13.489c.417 0 .756.339.756.755v100.313h-15zm-59.067 33.395c0-.417.339-.756.756-.756h13.489c.416 0 .755.339.755.756v66.919h-15z"/></g></g></svg>