<svg id="Capa_1" enable-background="new 0 0 512 512" height="512" viewBox="0 0 512 512" width="512" xmlns="http://www.w3.org/2000/svg"><g><g><path d="m484.831 40.777h-324.675c-10.863 0-19.669 8.806-19.669 19.669v391.109c0 10.863 8.806 19.669 19.669 19.669h324.674c10.863 0 19.669-8.806 19.669-19.669v-391.109c.001-10.863-8.805-19.669-19.668-19.669z" fill="#8ebac5"/><path d="m504.5 60.451v391.1c0 10.87-8.81 19.67-19.67 19.67h-30.41c10.87 0 19.67-8.8 19.67-19.67v-391.1c0-10.87-8.8-19.67-19.67-19.67h30.41c10.86 0 19.67 8.8 19.67 19.67z" fill="#7ca1b1"/><path d="m140.48 164.021h364.02v38h-364.02z" fill="#eaf6ff"/><path d="m474.09 164.021h30.41v38h-30.41z" fill="#c8effe"/><path d="m140.48 309.981h364.02v38h-364.02z" fill="#eaf6ff"/><path d="m474.09 309.981h30.41v38h-30.41z" fill="#c8effe"/><g fill="#eaf6ff"><circle cx="322.489" cy="103.116" r="17.536"/><circle cx="414.278" cy="103.116" r="17.536"/><circle cx="230.701" cy="103.116" r="17.536"/><circle cx="322.489" cy="256" r="17.536"/><circle cx="414.278" cy="256" r="17.536"/><circle cx="322.489" cy="408.883" r="17.536"/><circle cx="414.278" cy="408.883" r="17.536"/><circle cx="230.701" cy="408.883" r="17.536"/></g><path d="m253.419 119.289c11.653 2.267 20.053 12.486 20.053 24.357v175.176c0 26.326-13.223 50.887-35.19 65.38l-76.33 50.405c-13.023 8.584-29.909 8.584-42.918 0l-76.344-50.405c-21.967-14.493-35.19-39.054-35.19-65.38v-175.186c0-11.877 8.41-22.089 20.068-24.36 35.869-6.989 70.73-22.218 100.323-44.155 7.496-5.557 17.726-5.549 25.224.004 29.336 21.724 64.121 37.126 100.304 44.164z" fill="#99e6fc"/><path d="m273.47 143.651v175.17c0 26.33-13.22 50.89-35.19 65.38l-76.33 50.41c-11.15 7.34-25.13 8.4-37.08 3.16 2.01-.87 3.96-1.93 5.83-3.16l76.33-50.41c21.97-14.49 35.19-39.05 35.19-65.38v-175.17c0-11.88-8.4-22.1-20.05-24.36-34.96-6.8-68.6-21.4-97.29-41.97 1.01-.73 2.01-1.46 3.01-2.2 7.5-5.56 17.73-5.55 25.23 0 29.33 21.73 64.12 37.13 100.3 44.17 11.65 2.26 20.05 12.48 20.05 24.36z" fill="#62dbfb"/><path d="m185.227 251.859h-89.479c-10.467 0-18.953 8.486-18.953 18.953v50.32c0 10.467 8.486 18.953 18.953 18.953h89.478c10.467 0 18.953-8.486 18.953-18.953v-50.32c.001-10.467-8.485-18.953-18.952-18.953z" fill="#ffe177"/><path d="m204.18 270.811v50.32c0 10.47-8.49 18.95-18.95 18.95h-29.57c10.47 0 18.96-8.48 18.96-18.95v-50.32c0-10.47-8.49-18.95-18.96-18.95h29.57c10.46 0 18.95 8.48 18.95 18.95z" fill="#ffd15b"/></g><g><path d="m484.831 33.277h-180.939c-4.142 0-7.5 3.358-7.5 7.5s3.358 7.5 7.5 7.5h180.939c6.71 0 12.169 5.459 12.169 12.169v96.075h-216.028v-12.875c.135-15.122-11.465-29.186-26.787-31.858 1.011-2.741 1.552-5.668 1.552-8.672 0-13.805-11.231-25.036-25.036-25.036-11.7 0-21.547 8.067-24.28 18.931-17.307-7.383-33.77-16.752-48.843-27.914-2.959-2.191-6.215-3.727-9.591-4.65-1.202-7.282 3.442-16.001 12.169-16.17h108.446c4.142 0 7.5-3.358 7.5-7.5s-3.358-7.5-7.5-7.5h-108.446c-16.231-.173-28.835 14.849-27.169 31.176-3.367.923-6.614 2.456-9.562 4.642-28.569 21.178-62.212 35.984-97.291 42.819-15.143 2.95-26.134 16.291-26.134 31.721v175.187c0 28.929 14.415 55.71 38.558 71.639l76.345 50.407c5.581 3.682 11.75 6.035 18.084 7.072-1.669 15.641 10.705 30.848 27.169 30.785h324.675c14.981 0 27.169-12.188 27.169-27.169v-391.11c0-14.981-12.188-27.169-27.169-27.169zm12.169 269.201h-216.028v-92.957h216.028zm-.005-130.957v23h-216.023v-23zm-266.294-78.441c5.534 0 10.036 4.502 10.036 10.036 0 1.865-.514 3.658-1.458 5.209-6.266-1.664-12.468-3.58-18.587-5.746.282-5.284 4.657-9.499 10.009-9.499zm-183.88 284.862c-19.925-13.146-31.821-35.247-31.821-59.12v-175.187c0-8.269 5.889-15.417 14.002-16.998 37.261-7.26 73-22.99 103.355-45.492 3.915-2.687 10.004-4.179 16.294.006 30.431 22.536 66.164 38.269 103.335 45.499 8.104 1.577 13.985 8.724 13.985 16.995v175.176c0 23.873-11.896 45.974-31.823 59.121l-76.325 50.402c-9.666 6.434-23.557 7.126-34.658.003zm183.88 20.906c5.534 0 10.036 4.502 10.036 10.036s-4.502 10.036-10.036 10.036-10.036-4.502-10.036-10.036c0-1.744.448-3.419 1.29-4.912l7.668-5.064c.357-.038.716-.06 1.078-.06zm254.13 64.876h-324.675c-7.618.135-13.359-7.789-12.169-15.785 6.336-1.037 12.509-3.39 18.097-7.073l40.184-26.536c2.494 11.194 12.498 19.59 24.432 19.59 13.805 0 25.036-11.231 25.036-25.036 0-8.391-4.154-15.825-10.508-20.37 22.301-15.88 36.303-42.975 35.744-71.035h216.023v23h-192.041c-4.142 0-7.5 3.358-7.5 7.5s3.358 7.5 7.5 7.5h192.046v96.077c0 6.709-5.459 12.168-12.169 12.168z"/><path d="m211.68 321.132v-6.413c0-4.142-3.358-7.5-7.5-7.5s-7.5 3.358-7.5 7.5v6.413c0 6.315-5.138 11.453-11.453 11.453h-89.479c-6.315 0-11.453-5.138-11.453-11.453v-50.32c0-6.315 5.138-11.453 11.453-11.453h89.479c6.315 0 11.453 5.138 11.453 11.453v8.431c0 4.142 3.358 7.5 7.5 7.5s7.5-3.358 7.5-7.5v-8.431c0-11.981-8.009-22.122-18.953-25.364v-49.608c0-28.805-23.435-52.239-52.239-52.239s-52.239 23.435-52.239 52.239v49.608c-10.944 3.242-18.953 13.382-18.953 25.364v50.32c0 14.586 11.867 26.453 26.453 26.453h89.479c14.585 0 26.452-11.867 26.452-26.453zm-108.432-125.291c0-20.534 16.706-37.239 37.239-37.239s37.239 16.706 37.239 37.239v48.518h-74.479v-48.518z"/><path d="m347.525 103.116c0-13.805-11.231-25.036-25.036-25.036s-25.036 11.231-25.036 25.036 11.231 25.036 25.036 25.036 25.036-11.231 25.036-25.036zm-35.071 0c0-5.534 4.502-10.036 10.036-10.036s10.036 4.502 10.036 10.036-4.502 10.036-10.036 10.036-10.036-4.502-10.036-10.036z"/><path d="m439.313 103.116c0-13.805-11.231-25.036-25.036-25.036s-25.036 11.231-25.036 25.036 11.231 25.036 25.036 25.036 25.036-11.231 25.036-25.036zm-35.071 0c0-5.534 4.502-10.036 10.036-10.036s10.036 4.502 10.036 10.036-4.502 10.036-10.036 10.036-10.036-4.502-10.036-10.036z"/><path d="m322.489 281.035c13.805 0 25.036-11.231 25.036-25.036s-11.231-25.036-25.036-25.036-25.035 11.232-25.035 25.037 11.231 25.035 25.035 25.035zm0-35.071c5.534 0 10.036 4.502 10.036 10.036s-4.502 10.036-10.036 10.036-10.036-4.502-10.036-10.036 4.503-10.036 10.036-10.036z"/><path d="m414.278 281.035c13.805 0 25.036-11.231 25.036-25.036s-11.231-25.036-25.036-25.036-25.036 11.232-25.036 25.037 11.231 25.035 25.036 25.035zm0-35.071c5.534 0 10.036 4.502 10.036 10.036s-4.502 10.036-10.036 10.036-10.036-4.502-10.036-10.036 4.502-10.036 10.036-10.036z"/><path d="m322.489 383.848c-13.805 0-25.036 11.231-25.036 25.036s11.231 25.036 25.036 25.036 25.036-11.231 25.036-25.036-11.231-25.036-25.036-25.036zm0 35.071c-5.534 0-10.036-4.502-10.036-10.036s4.502-10.036 10.036-10.036 10.036 4.502 10.036 10.036-4.502 10.036-10.036 10.036z"/><path d="m414.278 383.848c-13.805 0-25.036 11.231-25.036 25.036s11.231 25.036 25.036 25.036 25.036-11.231 25.036-25.036-11.231-25.036-25.036-25.036zm0 35.071c-5.534 0-10.036-4.502-10.036-10.036s4.502-10.036 10.036-10.036 10.036 4.502 10.036 10.036-4.502 10.036-10.036 10.036z"/><path d="m132.98 286.751v19.709c0 4.142 3.358 7.5 7.5 7.5s7.5-3.358 7.5-7.5v-19.709c0-4.142-3.358-7.5-7.5-7.5s-7.5 3.358-7.5 7.5z"/></g></g></svg>