<svg id="Capa_1" enable-background="new 0 0 512.01 512.01" height="512" viewBox="0 0 512.01 512.01" width="512" xmlns="http://www.w3.org/2000/svg"><g><g><path d="m356.19 329.345-15.55 18.64-102.84 123.24h-77.63c-10.87 0-19.67-8.8-19.67-19.67v-391.1c0-10.87 8.8-19.67 19.67-19.67h193.65l-102.84 123.24-10.3 12.34c-6.21 7.44-8.7 16.74-7.68 25.66.96 8.37 5.02 16.4 12 22.22l102.75 85.74 7.24 6.04c4.01 3.35 4.55 9.31 1.2 13.32z" fill="#8ebac5"/><path d="m504.51 60.455v391.1c0 10.87-8.81 19.67-19.67 19.67h-198.55l102.84-123.24 3.79-4.54c8.06-9.65 9.85-22.45 5.82-33.46-1.98-5.44-5.38-10.44-10.14-14.41l-109.99-91.78c-.63-.53-1.18-1.13-1.64-1.77-2.44-3.42-2.38-8.18.44-11.55l22.07-26.45 102.84-123.24h82.52c10.86 0 19.67 8.8 19.67 19.67z" fill="#8ebac5"/><path d="m250.98 164.025-10.3 12.34c-6.21 7.44-8.7 16.74-7.68 25.66h-92.51v-38z" fill="#eaf6ff"/><path d="m504.51 164.025v38h-227.54c-2.44-3.42-2.38-8.18.44-11.55l22.07-26.45z" fill="#eaf6ff"/><path d="m356.19 329.345-15.55 18.64h-200.15v-38h207.26l7.24 6.04c4.01 3.35 4.55 9.31 1.2 13.32z" fill="#eaf6ff"/><path d="m504.51 309.985v38h-115.38l3.79-4.54c8.06-9.65 9.85-22.45 5.82-33.46z" fill="#eaf6ff"/><path d="m504.51 60.455v391.1c0 10.87-8.81 19.67-19.67 19.67h-30.41c10.87 0 19.67-8.8 19.67-19.67v-391.1c0-10.87-8.8-19.67-19.67-19.67h30.41c10.86 0 19.67 8.8 19.67 19.67z" fill="#7ca1b1"/><path d="m474.1 164.025h30.41v38h-30.41z" fill="#c8effe"/><path d="m474.1 309.985h30.41v38h-30.41z" fill="#c8effe"/><g fill="#eaf6ff"><circle cx="414.288" cy="103.12" r="17.536"/><circle cx="230.711" cy="103.12" r="17.536"/><circle cx="414.288" cy="256.004" r="17.536"/><circle cx="414.288" cy="408.888" r="17.536"/><circle cx="230.711" cy="408.888" r="17.536"/></g><path d="m128.454 128.205-119.183 215.332c-5.134 9.275 1.574 20.655 12.175 20.655h238.367c10.601 0 17.309-11.38 12.175-20.655l-119.183-215.332c-5.297-9.57-19.054-9.57-24.351 0z" fill="#ffe177"/><path d="m259.81 364.195h-28.35c10.61 0 17.31-11.38 12.18-20.66l-117.18-211.73 1.99-3.6c5.3-9.57 19.06-9.57 24.36 0l119.18 215.33c5.13 9.28-1.58 20.66-12.18 20.66z" fill="#ffd15b"/><path d="m140.49 275.637c-9.665 0-17.5-7.835-17.5-17.5v-49.897c0-9.665 7.835-17.5 17.5-17.5 9.665 0 17.5 7.835 17.5 17.5v49.896c0 9.666-7.835 17.501-17.5 17.501z" fill="#fb5f7a"/><circle cx="140.49" cy="318.022" fill="#fb5f7a" r="17.5"/></g><g><path d="m484.84 33.285h-82.52c-2.224 0-4.333.987-5.759 2.694l-124.903 149.682c-5.129 6.091-5.495 17.827 2.146 23.893l109.991 91.781c10.248 7.933 13.001 26.378 3.366 37.304l-106.631 127.78c-1.864 2.235-2.269 5.348-1.034 7.984 1.233 2.637 3.882 4.321 6.793 4.321h198.55c14.981 0 27.17-12.188 27.17-27.17v-391.1c.001-14.98-12.188-27.169-27.169-27.169zm-181.849 138.239h194.019v23h-213.211zm102.839-123.239h79.01c6.711 0 12.17 5.459 12.17 12.17v96.069h-181.502zm-108.649 161.239h199.829v92.961h-93.397c-2.519-4.831-5.987-9.148-10.208-12.669zm199.829 130.961h-93.216c2.414-5.16 5.335-13.291 4.298-23h88.918zm-12.17 123.24h-182.524l90.323-108.239h104.37v96.069c.001 6.711-5.458 12.17-12.169 12.17z"/><path d="m361.944 334.154c2.906-3.479 4.282-7.878 3.875-12.391-.406-4.508-2.544-8.59-6.025-11.499l-109.991-91.78c-5.252-4.379-8.573-10.528-9.352-17.312-.832-7.276 1.294-14.379 5.986-20.001l113.142-135.58c1.864-2.235 2.269-5.348 1.034-7.984-1.233-2.637-3.882-4.321-6.793-4.321h-193.65c-14.981 0-27.17 12.188-27.17 27.17v54.452c-4.651 1.748-8.576 5.092-11.107 9.665l-119.184 215.332c-3.711 6.702-3.604 14.645.287 21.245s10.788 10.541 18.45 10.541h111.554v79.863c0 14.981 12.188 27.17 27.17 27.17h77.63c2.224 0 4.333-.987 5.759-2.694zm-24.819 6.331h-58.278c-.1-.193-.191-.389-.297-.58l-12.409-22.42h78.892l5.148 4.294c.551.503 1.137 1.628.25 2.761zm-10.067-38h-69.22l-51.452-92.961h20.488c2.262 7.967 6.85 15.084 13.32 20.479zm-92.136-130.925c-4.668 5.691-8.821 13.658-9.501 22.965h-27.333l-12.729-23h49.593zm-74.752-123.275h177.623l-90.324 108.239h-70.417l-17.685-31.952c-2.578-4.658-6.601-8.045-11.366-9.764v-54.353c-.001-6.711 5.458-12.17 12.169-12.17zm-144.251 305.248c-.56-.949-1.688-3.47-.087-6.364l119.184-215.333c1.653-2.986 4.477-3.309 5.613-3.309 1.138 0 3.961.322 5.614 3.309l119.184 215.333c1.571 4.269.858 8.262-5.614 9.522h-238.367c-3.308 0-4.968-2.209-5.527-3.158zm218.371 110.192h-74.12c-6.711 0-12.17-5.459-12.17-12.17v-79.863h111.812c9.187-.431 17.934-5.609 20.782-16.206h44.014z"/><path d="m414.288 128.156c13.805 0 25.035-11.231 25.035-25.036s-11.23-25.035-25.035-25.035-25.036 11.23-25.036 25.035 11.231 25.036 25.036 25.036zm0-35.071c5.533 0 10.035 4.502 10.035 10.035 0 5.534-4.502 10.036-10.035 10.036-5.534 0-10.036-4.502-10.036-10.036 0-5.533 4.502-10.035 10.036-10.035z"/><path d="m230.711 128.156c13.805 0 25.035-11.231 25.035-25.036s-11.23-25.035-25.035-25.035-25.036 11.23-25.036 25.035 11.231 25.036 25.036 25.036zm0-35.071c5.533 0 10.035 4.502 10.035 10.035 0 5.534-4.502 10.036-10.035 10.036-5.534 0-10.036-4.502-10.036-10.036 0-5.533 4.502-10.035 10.036-10.035z"/><path d="m414.288 281.04c13.805 0 25.035-11.231 25.035-25.036s-11.23-25.036-25.035-25.036-25.036 11.231-25.036 25.036 11.231 25.036 25.036 25.036zm0-35.072c5.533 0 10.035 4.502 10.035 10.036s-4.502 10.036-10.035 10.036c-5.534 0-10.036-4.502-10.036-10.036s4.502-10.036 10.036-10.036z"/><path d="m414.288 383.852c-13.805 0-25.036 11.231-25.036 25.036s11.231 25.035 25.036 25.035 25.035-11.23 25.035-25.035-11.23-25.036-25.035-25.036zm0 35.071c-5.534 0-10.036-4.502-10.036-10.035 0-5.534 4.502-10.036 10.036-10.036 5.533 0 10.035 4.502 10.035 10.036 0 5.533-4.502 10.035-10.035 10.035z"/><path d="m230.711 383.852c-13.805 0-25.036 11.231-25.036 25.036s11.231 25.035 25.036 25.035 25.035-11.23 25.035-25.035-11.23-25.036-25.035-25.036zm0 35.071c-5.534 0-10.036-4.502-10.036-10.035 0-5.534 4.502-10.036 10.036-10.036 5.533 0 10.035 4.502 10.035 10.036 0 5.533-4.502 10.035-10.035 10.035z"/><path d="m140.489 183.24c-13.784 0-24.999 11.215-24.999 25v49.896c0 13.785 11.215 25 25 25s25-11.215 25-25v-49.896c0-13.785-11.216-25-25.001-25zm10.001 74.897c0 5.514-4.486 10-10 10h-.001c-5.514 0-9.999-4.486-9.999-10v-49.897c0-5.514 4.486-10 10-10s10 4.486 10 10z"/><path d="m140.49 293.022c-13.785 0-25 11.215-25 25s11.215 25 25 25 25-11.215 25-25-11.215-25-25-25zm0 35c-5.514 0-10-4.486-10-10s4.486-10 10-10 10 4.486 10 10-4.486 10-10 10z"/></g></g></svg>