<svg id="Capa_1" enable-background="new 0 0 512 512" height="512" viewBox="0 0 512 512" width="512" xmlns="http://www.w3.org/2000/svg"><g><g><path d="m78.211 233.776h355.577v32.325h-355.577z" fill="#688ed5"/></g><g><path d="m443.89 363.077h-375.78c-5.579 0-10.102-4.523-10.102-10.102v-76.772c0-5.579 4.523-10.102 10.102-10.102h375.78c5.579 0 10.102 4.523 10.102 10.102v76.772c0 5.58-4.523 10.102-10.102 10.102z" fill="#4172ca"/></g><g><path d="m443.89 363.077h-18.183v-96.976h18.183c5.579 0 10.102 4.523 10.102 10.102v76.772c0 5.58-4.523 10.102-10.102 10.102z" fill="#3a67c1"/></g><g><path d="m443.89 104.476h-375.78c-5.579 0-10.102-4.523-10.102-10.102v-76.772c0-5.579 4.523-10.102 10.102-10.102h375.78c5.579 0 10.102 4.523 10.102 10.102v76.772c0 5.579-4.523 10.102-10.102 10.102z" fill="#4172ca"/></g><g><path d="m443.89 104.476h-18.183v-96.976h18.183c5.579 0 10.102 4.523 10.102 10.102v76.772c0 5.579-4.523 10.102-10.102 10.102z" fill="#3a67c1"/></g><g><path d="m78.211 104.476h355.577v32.325h-355.577z" fill="#688ed5"/></g><g><path d="m179.228 72.15h-16.163c-4.463 0-8.081-3.618-8.081-8.081v-16.162c0-4.463 3.618-8.081 8.081-8.081h16.163c4.463 0 8.081 3.618 8.081 8.081v16.163c0 4.462-3.618 8.08-8.081 8.08z" fill="#a2f5c3"/></g><g><path d="m243.878 72.15h-16.163c-4.463 0-8.081-3.618-8.081-8.081v-16.162c0-4.463 3.618-8.081 8.081-8.081h16.163c4.463 0 8.081 3.618 8.081 8.081v16.163c0 4.462-3.618 8.08-8.081 8.08z" fill="#e279b3"/></g><g><path d="m413.585 72.15h-121.22c-4.463 0-8.081-3.618-8.081-8.081v-16.162c0-4.463 3.618-8.081 8.081-8.081h121.22c4.463 0 8.081 3.618 8.081 8.081v16.163c.001 4.462-3.617 8.08-8.081 8.08z" fill="#26447e"/></g><g><path d="m114.577 72.15h-16.162c-4.463 0-8.081-3.618-8.081-8.081v-16.162c0-4.463 3.618-8.081 8.081-8.081h16.163c4.463 0 8.081 3.618 8.081 8.081v16.163c0 4.462-3.619 8.08-8.082 8.08z" fill="#a2f5c3"/></g><g><path d="m443.89 233.776h-375.78c-5.579 0-10.102-4.523-10.102-10.102v-76.772c0-5.579 4.523-10.102 10.102-10.102h375.78c5.579 0 10.102 4.523 10.102 10.102v76.772c0 5.58-4.523 10.102-10.102 10.102z" fill="#4172ca"/></g><g><path d="m443.89 233.776h-18.183v-96.976h18.183c5.579 0 10.102 4.523 10.102 10.102v76.772c0 5.58-4.523 10.102-10.102 10.102z" fill="#3a67c1"/></g><g><path d="m179.228 201.451h-16.163c-4.463 0-8.081-3.618-8.081-8.081v-16.163c0-4.463 3.618-8.081 8.081-8.081h16.163c4.463 0 8.081 3.618 8.081 8.081v16.163c0 4.463-3.618 8.081-8.081 8.081z" fill="#a2f5c3"/></g><g><path d="m243.878 201.451h-16.163c-4.463 0-8.081-3.618-8.081-8.081v-16.163c0-4.463 3.618-8.081 8.081-8.081h16.163c4.463 0 8.081 3.618 8.081 8.081v16.163c0 4.463-3.618 8.081-8.081 8.081z" fill="#e279b3"/></g><g><path d="m413.585 201.451h-121.22c-4.463 0-8.081-3.618-8.081-8.081v-16.163c0-4.463 3.618-8.081 8.081-8.081h121.22c4.463 0 8.081 3.618 8.081 8.081v16.163c.001 4.463-3.617 8.081-8.081 8.081z" fill="#26447e"/></g><g><path d="m114.577 201.451h-16.162c-4.463 0-8.081-3.618-8.081-8.081v-16.163c0-4.463 3.618-8.081 8.081-8.081h16.163c4.463 0 8.081 3.618 8.081 8.081v16.163c0 4.463-3.619 8.081-8.082 8.081z" fill="#a2f5c3"/></g><g><circle cx="256" cy="385.301" fill="#e9a761" r="119.199"/></g><g><path d="m325.682 288.589c14.146 19.599 22.487 43.665 22.487 69.683 0 65.832-53.367 119.199-119.199 119.199-26.017 0-50.084-8.341-69.683-22.487 21.649 29.992 56.899 49.516 96.713 49.516 65.832 0 119.199-53.367 119.199-119.199 0-39.815-19.524-75.064-49.517-96.712z" fill="#e69642"/></g><g><path d="m299.74 322.92-18.304-11.44c-4.037-2.523-9.273.379-9.273 5.14v36.065c0 1.393-.718 2.688-1.899 3.427l-12.122 7.576c-1.31.819-2.973.819-4.283 0l-12.122-7.576c-1.181-.738-1.899-2.033-1.899-3.427v-36.065c0-4.761-5.236-7.663-9.273-5.14l-18.304 11.44c-2.954 1.846-4.748 5.083-4.748 8.566v48.017c0 3.136 1.457 6.095 3.943 8.007l19.956 15.351c1.492 1.147 2.366 2.922 2.366 4.804v94.759c7.201 1.358 14.628 2.077 22.224 2.077s15.023-.719 22.224-2.077v-94.759c0-1.882.874-3.657 2.366-4.804l19.956-15.351c2.486-1.912 3.943-4.871 3.943-8.007v-48.017c-.003-3.483-1.797-6.72-4.751-8.566z" fill="#e6f7fe"/></g><g><path d="m443.89 258.602h-2.602v-17.322h2.602c9.705 0 17.6-7.9 17.6-17.61v-76.77c0-9.705-7.896-17.601-17.6-17.601h-2.602v-17.319h2.602c9.705 0 17.6-7.9 17.6-17.61v-20.88c0-4.143-3.358-7.5-7.5-7.5s-7.5 3.357-7.5 7.5v20.88c0 1.439-1.167 2.61-2.6 2.61h-375.78c-1.434 0-2.6-1.171-2.6-2.61v-76.77c0-1.434 1.167-2.6 2.6-2.6h375.78c1.434 0 2.6 1.166 2.6 2.6v20.89c0 4.143 3.358 7.5 7.5 7.5s7.5-3.357 7.5-7.5v-20.89c0-9.704-7.896-17.6-17.6-17.6h-375.78c-9.705 0-17.6 7.896-17.6 17.6v76.77c0 9.71 7.896 17.61 17.6 17.61h2.602v17.32h-2.602c-9.705 0-17.6 7.896-17.6 17.601v76.77c0 9.71 7.896 17.61 17.6 17.61h2.602v17.321h-2.602c-9.706 0-17.602 7.896-17.602 17.602v76.772c0 9.705 7.896 17.602 17.602 17.602h62.05c-.562 4.832-.86 9.743-.86 14.723 0 69.862 56.837 126.7 126.7 126.7 40.787 0 79.328-19.83 103.099-53.045 2.411-3.369 1.634-8.054-1.734-10.464-3.368-2.413-8.053-1.636-10.464 1.733-15.045 21.023-36.799 35.964-61.177 42.723v-84.575l19.396-14.92c4.301-3.31 6.868-8.524 6.868-13.95v-48.017c0-6.109-3.093-11.688-8.272-14.927l-18.305-11.44c-4.179-2.613-9.452-2.75-13.762-.36-4.309 2.389-6.986 6.934-6.986 11.86v34.148l-8.663 5.415-8.663-5.414v-34.148c0-4.927-2.677-9.472-6.986-11.86-4.311-2.389-9.583-2.25-13.763.36l-18.304 11.44c-5.18 3.238-8.272 8.817-8.272 14.927v48.017c0 5.428 2.568 10.643 6.87 13.951l19.395 14.919v84.605c-47.209-13.048-81.977-56.377-81.977-107.679 0-61.54 50.025-111.615 111.546-111.698h.308c61.521.083 111.546 50.157 111.546 111.698 0 12.3-1.986 24.393-5.903 35.941-1.331 3.923.771 8.182 4.694 9.512 3.922 1.329 8.181-.771 9.511-4.693 4.444-13.104 6.698-26.817 6.698-40.76 0-4.98-.298-9.891-.86-14.723h62.05c9.706 0 17.602-7.896 17.602-17.602v-76.772c0-9.705-7.896-17.601-17.602-17.601zm-207.906 138.314-19.957-15.351c-.636-.489-1.015-1.26-1.015-2.062v-48.017c0-.903.457-1.728 1.223-2.206l16.103-10.064v33.469c0 4.005 2.027 7.664 5.424 9.787l12.121 7.575c3.717 2.324 8.52 2.323 12.234.001l12.122-7.577c3.396-2.122 5.424-5.781 5.424-9.786v-33.469l16.103 10.064c.766.479 1.223 1.303 1.223 2.206v48.017c0 .802-.38 1.573-1.015 2.062l-19.958 15.351c-3.313 2.55-5.292 6.567-5.292 10.748v88.343c-4.852.649-9.768.993-14.724.993-4.991 0-9.904-.334-14.724-.972v-88.364c0-4.181-1.978-8.198-5.292-10.748zm-150.273-284.936h340.577v17.32h-340.577zm0 129.3h11.669c4.142 0 7.5-3.357 7.5-7.5s-3.358-7.5-7.5-7.5h-29.27c-1.434 0-2.6-1.171-2.6-2.61v-76.77c0-1.434 1.167-2.601 2.6-2.601h375.78c1.434 0 2.6 1.167 2.6 2.601v76.77c0 1.439-1.167 2.61-2.6 2.61h-311.51c-4.142 0-7.5 3.357-7.5 7.5s3.358 7.5 7.5 7.5h293.909v17.321h-340.578zm47.119 114.297h-64.72c-1.435 0-2.602-1.167-2.602-2.602v-76.772c0-1.435 1.167-2.602 2.602-2.602h128.139c-31.373 16.851-54.865 46.531-63.419 81.976zm313.662-2.601c0 1.435-1.167 2.602-2.602 2.602h-64.72c-8.554-35.445-32.047-65.126-63.419-81.976h128.139c1.435 0 2.602 1.167 2.602 2.602z"/><path d="m163.065 32.325c-8.591 0-15.581 6.989-15.581 15.581v16.163c0 8.592 6.99 15.581 15.581 15.581h16.163c8.592 0 15.582-6.989 15.582-15.581v-16.163c0-8.592-6.99-15.581-15.582-15.581zm16.744 15.581v16.163c0 .32-.261.581-.582.581h-16.163c-.32 0-.581-.261-.581-.581v-16.163c0-.32.261-.581.581-.581h16.163c.321 0 .582.261.582.581z"/><path d="m227.715 32.325c-8.591 0-15.581 6.989-15.581 15.581v16.163c0 8.592 6.99 15.581 15.581 15.581h16.163c8.592 0 15.582-6.989 15.582-15.581v-16.163c0-8.592-6.99-15.581-15.582-15.581zm16.744 15.581v16.163c0 .32-.261.581-.582.581h-16.163c-.32 0-.581-.261-.581-.581v-16.163c0-.32.261-.581.581-.581h16.163c.322 0 .582.261.582.581z"/><path d="m292.366 32.325c-8.591 0-15.581 6.989-15.581 15.581v16.163c0 8.592 6.99 15.581 15.581 15.581h121.22c8.591 0 15.581-6.989 15.581-15.581v-16.163c0-8.592-6.99-15.581-15.581-15.581zm121.801 15.581v16.163c0 .32-.261.581-.581.581h-121.22c-.32 0-.581-.261-.581-.581v-16.163c0-.32.261-.581.581-.581h121.22c.32 0 .581.261.581.581z"/><path d="m98.415 32.325c-8.591 0-15.581 6.989-15.581 15.581v16.163c0 8.592 6.99 15.581 15.581 15.581h16.163c8.592 0 15.582-6.989 15.582-15.581v-16.163c0-8.592-6.99-15.581-15.582-15.581zm16.744 15.581v16.163c0 .32-.261.581-.582.581h-16.162c-.32 0-.581-.261-.581-.581v-16.163c0-.32.261-.581.581-.581h16.163c.32 0 .581.261.581.581z"/><path d="m163.065 208.951h16.163c8.592 0 15.582-6.989 15.582-15.581v-16.163c0-8.592-6.99-15.581-15.582-15.581h-16.163c-8.591 0-15.581 6.989-15.581 15.581v16.163c0 8.592 6.99 15.581 15.581 15.581zm-.581-31.744c0-.32.261-.581.581-.581h16.163c.321 0 .582.261.582.581v16.163c0 .32-.261.581-.582.581h-16.163c-.32 0-.581-.261-.581-.581z"/><path d="m227.715 208.951h16.163c8.592 0 15.582-6.989 15.582-15.581v-16.163c0-8.592-6.99-15.581-15.582-15.581h-16.163c-8.591 0-15.581 6.989-15.581 15.581v16.163c0 8.592 6.99 15.581 15.581 15.581zm-.581-31.744c0-.32.261-.581.581-.581h16.163c.321 0 .582.261.582.581v16.163c0 .32-.261.581-.582.581h-16.163c-.32 0-.581-.261-.581-.581z"/><path d="m292.366 208.951h121.22c8.591 0 15.581-6.989 15.581-15.581v-16.163c0-8.592-6.99-15.581-15.581-15.581h-121.22c-8.591 0-15.581 6.989-15.581 15.581v16.163c0 8.592 6.989 15.581 15.581 15.581zm-.581-31.744c0-.32.261-.581.581-.581h121.22c.32 0 .581.261.581.581v16.163c0 .32-.261.581-.581.581h-121.22c-.32 0-.581-.261-.581-.581z"/><path d="m130.159 193.37v-16.163c0-8.592-6.99-15.581-15.582-15.581h-16.162c-8.591 0-15.581 6.989-15.581 15.581v16.163c0 8.592 6.99 15.581 15.581 15.581h16.163c8.591 0 15.581-6.989 15.581-15.581zm-15 0c0 .32-.261.581-.582.581h-16.162c-.32 0-.581-.261-.581-.581v-16.163c0-.32.261-.581.581-.581h16.163c.321 0 .582.261.582.581v16.163z"/></g></g></svg>