<svg height="512pt" viewBox="0 -43 512 512" width="512pt" xmlns="http://www.w3.org/2000/svg"><path d="m288 341.332031h-64c-5.886719 0-10.667969 4.78125-10.667969 10.667969v42.667969c0 5.886719 4.78125 10.664062 10.667969 10.664062h64c5.886719 0 10.667969-4.777343 10.667969-10.664062v-42.667969c0-5.886719-4.78125-10.667969-10.667969-10.667969zm0 0" fill="#607d8b"/><path d="m480 0h-448c-17.644531 0-32 14.355469-32 32v298.667969c0 17.640625 14.355469 32 32 32h448c17.644531 0 32-14.359375 32-32v-298.667969c0-17.644531-14.355469-32-32-32zm0 0" fill="#455a64"/><path d="m458.667969 42.667969h-405.335938c-5.886719 0-10.664062 4.777343-10.664062 10.664062v256c0 5.890625 4.777343 10.667969 10.664062 10.667969h405.335938c5.886719 0 10.664062-4.777344 10.664062-10.667969v-256c0-5.886719-4.777343-10.664062-10.664062-10.664062zm0 0" fill="#00bcd4"/><path d="m480 362.667969h-448c-17.644531 0-32-14.359375-32-32v-298.667969c0-17.644531 14.355469-32 32-32h448c17.644531 0 32 14.355469 32 32v298.667969c0 17.640625-14.355469 32-32 32zm-448-341.335938c-5.867188 0-10.667969 4.800781-10.667969 10.667969v298.667969c0 5.867187 4.800781 10.664062 10.667969 10.664062h448c5.867188 0 10.667969-4.796875 10.667969-10.664062v-298.667969c0-5.867188-4.800781-10.667969-10.667969-10.667969zm0 0"/><path d="m95.980469 426.667969c-5.101563 0-9.625-3.691407-10.496094-8.917969-.984375-5.804688 2.964844-11.308594 8.765625-12.265625l128-21.335937c5.71875-1.042969 11.285156 2.945312 12.265625 8.769531.984375 5.800781-2.964844 11.304687-8.765625 12.265625l-128 21.332031c-.578125.109375-1.195312.152344-1.769531.152344zm0 0"/><path d="m416.019531 426.667969c-.574219 0-1.191406-.042969-1.769531-.152344l-128-21.332031c-5.800781-.960938-9.75-6.464844-8.765625-12.265625.957031-5.824219 6.546875-9.8125 12.265625-8.769531l128 21.335937c5.800781.957031 9.75 6.460937 8.765625 12.265625-.871094 5.226562-5.394531 8.917969-10.496094 8.917969zm0 0"/><path d="m288 405.332031h-64c-5.886719 0-10.667969-4.777343-10.667969-10.664062v-42.667969c0-5.886719 4.78125-10.667969 10.667969-10.667969h64c5.886719 0 10.667969 4.78125 10.667969 10.667969v42.667969c0 5.886719-4.78125 10.664062-10.667969 10.664062zm-53.332031-21.332031h42.664062v-21.332031h-42.664062zm0 0"/><path d="m458.667969 320h-405.335938c-5.886719 0-10.664062-4.777344-10.664062-10.667969v-256c0-5.886719 4.777343-10.664062 10.664062-10.664062h405.335938c5.886719 0 10.664062 4.777343 10.664062 10.664062v256c0 5.890625-4.777343 10.667969-10.664062 10.667969zm-394.667969-21.332031h384v-234.667969h-384zm0 0"/></svg>